<svg width="80" height="80" viewBox="0 0 26 26" fill="none" xmlns="http://www.w3.org/2000/svg">
<path d="M10.2159 10.3009L10.2168 9.87405C10.217 9.80221 10.1959 9.73191 10.1561 9.67208C10.1163 9.61226 10.0597 9.5656 9.99331 9.53804C9.92696 9.51047 9.85392 9.50324 9.78345 9.51726C9.71299 9.53128 9.64828 9.56591 9.59754 9.61678L6.54214 12.6722C6.50849 12.7059 6.48183 12.746 6.46369 12.7901C6.44554 12.8342 6.43627 12.8814 6.43639 12.929C6.43651 12.9767 6.44604 13.0239 6.46441 13.0679C6.48278 13.1118 6.50965 13.1518 6.54347 13.1854L9.59954 16.2414C9.65009 16.2928 9.71485 16.3279 9.78549 16.3421C9.85613 16.3564 9.92943 16.3492 9.99595 16.3215C10.0625 16.2938 10.1192 16.2469 10.1588 16.1867C10.1985 16.1265 10.2192 16.0558 10.2183 15.9838C10.2186 15.888 10.2568 15.7961 10.3245 15.7284C10.3923 15.6607 10.4841 15.6225 10.5799 15.6222L17.0906 15.6137C17.1381 15.6137 17.1852 15.6043 17.2291 15.5862C17.2731 15.568 17.313 15.5413 17.3466 15.5077C17.3802 15.4741 17.4069 15.4342 17.425 15.3902C17.4432 15.3463 17.4526 15.2992 17.4526 15.2517L17.4513 14.6605C17.4507 14.5885 17.4716 14.518 17.5114 14.458C17.5511 14.398 17.6078 14.3512 17.6743 14.3236C17.7408 14.296 17.814 14.2888 17.8846 14.303C17.9551 14.3172 18.0199 14.3521 18.0705 14.4033L21.1252 17.458C21.1932 17.526 21.2315 17.6181 21.2316 17.7142C21.2318 17.8103 21.1939 17.9026 21.1261 17.9708L18.0707 21.0262C18.0199 21.0767 17.9552 21.1111 17.8848 21.125C17.8145 21.1388 17.7416 21.1315 17.6753 21.104C17.6091 21.0765 17.5525 21.03 17.5127 20.9703C17.4728 20.9107 17.4515 20.8406 17.4515 20.7689L17.4506 20.3569C17.4517 20.3092 17.443 20.2618 17.4253 20.2175C17.4075 20.1732 17.3809 20.1329 17.3472 20.0992C17.3134 20.0654 17.2732 20.0389 17.2289 20.0211C17.1846 20.0033 17.1372 19.9947 17.0894 19.9958L6.13308 19.9954C6.03717 19.9947 5.94538 19.9563 5.87755 19.8885C5.80973 19.8206 5.77132 19.7289 5.77063 19.6329L5.77013 6.22235C5.76992 6.17464 5.77917 6.12736 5.79733 6.08324C5.8155 6.03913 5.84222 5.99904 5.87595 5.96531C5.90969 5.93157 5.94977 5.90485 5.99389 5.88669C6.038 5.86853 6.08528 5.85928 6.13299 5.85949L24.6961 5.86412C24.7921 5.86344 24.8838 5.82504 24.9517 5.75722C25.0195 5.6894 25.0579 5.59761 25.0586 5.5017L25.0558 1.13406C25.0554 1.03804 25.0171 0.946065 24.9492 0.87817C24.8813 0.810276 24.7893 0.77197 24.6933 0.771604L0.660755 0.772023C0.564742 0.772382 0.472767 0.810681 0.404877 0.87857C0.336988 0.94646 0.298689 1.03843 0.298331 1.13445L0.299227 25.1657C0.299594 25.2617 0.337899 25.3537 0.405793 25.4216C0.473688 25.4895 0.565666 25.5278 0.661677 25.5282L24.6925 25.5286C24.7883 25.5283 24.8801 25.4902 24.9479 25.4224C25.0156 25.3547 25.0538 25.2629 25.054 25.1671L25.0535 11.029C25.0532 10.9331 25.015 10.8412 24.9471 10.7733C24.8793 10.7055 24.7874 10.6673 24.6915 10.667L10.5797 10.6664C10.532 10.6666 10.4847 10.6574 10.4406 10.6392C10.3965 10.6211 10.3564 10.5943 10.3227 10.5606C10.2889 10.5269 10.2622 10.4868 10.244 10.4427C10.2259 10.3985 10.2166 10.3513 10.2168 10.3035L10.2159 10.3009Z" fill="white"/>
</svg>
